<?xml version="1.0" encoding="utf-8"?>
<!-- Generator: Adobe Illustrator 24.1.2, SVG Export Plug-In . SVG Version: 6.00 Build 0)  -->
<svg version="1.1" id="Capa_1" xmlns="http://www.w3.org/2000/svg" xmlns:xlink="http://www.w3.org/1999/xlink" x="0px" y="0px"
	 viewBox="0 0 480 480" style="enable-background:new 0 0 480 480;" xml:space="preserve">
<style type="text/css">
	.st0{fill:#9A8ABF;}
	.st1{fill:#1F3442;}
	.st2{fill:#C6BEC6;}
	.st3{fill:#7E8C8D;}
	.st4{fill:#DFF9FB;}
	.st5{fill:#C7ECEE;}
	.st6{fill:#FF7979;}
	.st7{fill:#D65B5B;}
	.st8{fill:#351747;}
</style>
<path class="st0" d="M475,290v46.3c0,13.1-10.6,23.7-23.7,23.7H28.7C15.6,360,5,349.4,5,336.3V290H475z M245.5,320.9
	c0-6-4.9-10.9-10.9-10.9c-6,0-10.9,4.9-10.9,10.9s4.9,10.9,10.9,10.9C240.6,331.9,245.5,327,245.5,320.9z"/>
<path class="st1" d="M17.3,348.3V302H475v-12H5v46.3c0,9.8,6,18.2,14.5,21.8C18.1,355.2,17.3,351.8,17.3,348.3z"/>
<path class="st2" d="M475,43.7V290h-40V60H45v230H5V43.7C5,30.6,15.6,20,28.7,20h422.7C464.4,20,475,30.6,475,43.7z"/>
<path class="st3" d="M15.7,55.7C15.7,42.6,26.3,32,39.3,32H462c4.1,0,7.9,1,11.3,2.9c-3.5-8.7-12-14.9-22-14.9H28.7
	C15.6,20,5,30.6,5,43.7V290h10.7V55.7z"/>
<path class="st3" d="M435,72h10.7v218H435V72z"/>
<path class="st4" d="M305,130v-30H85v110h220V130z M435,60v230H45V60H435z M405,260v-20h-20v20H405z M375,260v-20h-20v20H375z
	 M345,260v-20h-20v20H345z M315,260v-20h-20v20H315z M285,260v-20h-20v20H285z M255,260v-20h-20v20H255z M225,260v-20h-20v20H225z
	 M195,260v-20h-20v20H195z"/>
<path class="st5" d="M55.7,72H435V60H45v230h10.7V72z"/>
<path d="M385,240h20v20h-20V240z"/>
<path d="M355,240h20v20h-20V240z"/>
<path d="M325,240h20v20h-20V240z"/>
<path d="M295,240h20v20h-20V240z"/>
<path d="M265,240h20v20h-20V240z"/>
<path d="M246.2,120h12.2v70h-12.2V120z"/>
<path d="M235,240h20v20h-20V240z"/>
<path d="M234.5,310c6,0,10.9,4.9,10.9,10.9s-4.9,10.9-10.9,10.9c-6,0-10.9-4.9-10.9-10.9S228.5,310,234.5,310z"/>
<path d="M237.7,143.3c0,3-0.5,5.8-1.4,8.6c-0.9,2.8-2.3,5.3-4,7.4c-1.7,2.2-3.8,3.9-6.2,5.2c-2.4,1.3-5.1,2-8,2h-14.9V190h-12.2v-70
	h26.7c2.9,0,5.6,0.7,8,2c2.4,1.4,4.6,3.1,6.3,5.3c1.8,2.2,3.2,4.7,4.2,7.5C237.2,137.6,237.7,140.4,237.7,143.3z M225.3,143.3
	c0-1.8-0.2-3.4-0.7-4.8c-0.5-1.4-1.1-2.6-1.9-3.6c-0.8-1-1.7-1.7-2.7-2.2c-1-0.5-2.1-0.7-3.1-0.7h-13.6v22.7h14.2
	c2.2,0,4.1-1,5.6-3.1C224.6,149.5,225.3,146.8,225.3,143.3z"/>
<path d="M205,240h20v20h-20V240z"/>
<path d="M175,240h20v20h-20V240z"/>
<path d="M160.3,120l23.9,70h-12.6l-5.8-17.4h-22L138,190h-12.6l24-70H160.3z M163.5,163l-8.7-27.5l-9,27.5H163.5z"/>
<path class="st6" d="M85,100v110h220V100H85z M171.6,190l-5.8-17.4h-22L138,190h-12.6l24-70h10.8l23.9,70H171.6z M236.3,151.9
	c-0.9,2.8-2.3,5.3-4,7.4c-1.7,2.2-3.8,3.9-6.2,5.2c-2.4,1.3-5.1,2-8,2h-14.9V190h-12.2v-70h26.7c2.9,0,5.6,0.7,8,2
	c2.4,1.4,4.6,3.1,6.3,5.3c1.8,2.2,3.2,4.7,4.2,7.5c1,2.8,1.5,5.6,1.5,8.4C237.7,146.2,237.3,149.1,236.3,151.9z M258.4,190h-12.2
	v-70h12.2V190z M224.6,138.5c0.5,1.4,0.7,3,0.7,4.8c0,3.5-0.8,6.2-2.3,8.3c-1.5,2-3.4,3.1-5.6,3.1h-14.2v-22.7h13.6
	c1.1,0,2.1,0.3,3.1,0.7c1,0.5,1.9,1.2,2.7,2.2C223.5,135.9,224.1,137.1,224.6,138.5z M154.9,135.5l8.7,27.5h-17.7L154.9,135.5z"/>
<path class="st7" d="M95,110.7h210V100H85v110h10V110.7z"/>
<path class="st8" d="M315,465c-2.1,0-4.1-1.4-4.8-3.6l-30-100c-0.8-2.6,0.7-5.4,3.4-6.2s5.4,0.7,6.2,3.4l30,100
	c0.8,2.6-0.7,5.4-3.4,6.2C316,464.9,315.5,465,315,465z"/>
<path class="st8" d="M155,465c-0.5,0-1-0.1-1.4-0.2c-2.6-0.8-4.1-3.6-3.4-6.2l30-100c0.8-2.6,3.6-4.1,6.2-3.4
	c2.6,0.8,4.1,3.6,3.4,6.2l-30,100C159.1,463.6,157.2,465,155,465z"/>
<path class="st8" d="M365,465H105c-2.8,0-5-2.2-5-5s2.2-5,5-5h260c2.8,0,5,2.2,5,5S367.8,465,365,465z"/>
<path class="st8" d="M145,295H5c-2.8,0-5-2.2-5-5s2.2-5,5-5h140c2.8,0,5,2.2,5,5S147.8,295,145,295z"/>
<path class="st8" d="M475,295H145c-2.8,0-5-2.2-5-5s2.2-5,5-5h330c2.8,0,5,2.2,5,5S477.8,295,475,295z"/>
<path class="st8" d="M435,295c-2.8,0-5-2.2-5-5V65H50v225c0,2.8-2.2,5-5,5s-5-2.2-5-5V60c0-2.8,2.2-5,5-5h390c2.8,0,5,2.2,5,5v230
	C440,292.8,437.8,295,435,295z"/>
<path d="M305,215H85c-2.8,0-5-2.2-5-5V100c0-2.8,2.2-5,5-5h220c2.8,0,5,2.2,5,5v110C310,212.8,307.8,215,305,215z M90,205h210V105
	H90V205z"/>
<path d="M345,135h-40c-2.8,0-5-2.2-5-5s2.2-5,5-5h36.4l8.9-26.6c0.7-2,2.6-3.4,4.7-3.4h40c2.8,0,5,2.2,5,5s-2.2,5-5,5h-36.4
	l-8.9,26.6C349.1,133.6,347.2,135,345,135z"/>
<path d="M395,215h-40c-2.2,0-4.1-1.4-4.7-3.4l-8.9-26.6H305c-2.8,0-5-2.2-5-5s2.2-5,5-5h40c2.2,0,4.1,1.4,4.7,3.4l8.9,26.6H395
	c2.8,0,5,2.2,5,5S397.8,215,395,215z"/>
<path class="st8" d="M451.3,365H28.7C12.9,365,0,352.1,0,336.3V43.7C0,27.9,12.9,15,28.7,15h422.7c15.8,0,28.7,12.9,28.7,28.7v292.7
	C480,352.1,467.1,365,451.3,365z M28.7,25C18.4,25,10,33.4,10,43.7v292.7c0,10.3,8.4,18.7,18.7,18.7h422.7
	c10.3,0,18.7-8.4,18.7-18.7V43.7c0-10.3-8.4-18.7-18.7-18.7H28.7z"/>
</svg>
