<?xml version="1.0" encoding="utf-8"?>
<!-- Generator: Adobe Illustrator 24.1.2, SVG Export Plug-In . SVG Version: 6.00 Build 0)  -->
<svg version="1.1" id="Capa_1" xmlns="http://www.w3.org/2000/svg" xmlns:xlink="http://www.w3.org/1999/xlink" x="0px" y="0px"
	 viewBox="0 0 375 375" style="enable-background:new 0 0 375 375;" xml:space="preserve">
<style type="text/css">
	.st0{clip-path:url(#SVGID_2_);}
	.st1{fill:#F4D484;}
	.st2{fill:#45E5E5;}
	.st3{fill:#878B8E;}
	.st4{clip-path:url(#SVGID_4_);}
	.st5{fill:#351747;}
	.st6{fill:#EFD3F4;}
	.st7{fill:#FFFFFF;}
</style>
<g id="surface1">
	<g>
		<g>
			<defs>
				<rect id="SVGID_1_" x="173.3" y="37.5" width="181.5" height="233.5"/>
			</defs>
			<clipPath id="SVGID_2_">
				<use xlink:href="#SVGID_1_"  style="overflow:visible;"/>
			</clipPath>
			<g class="st0">
				<path class="st1" d="M264.2,37.5c-50.1,0-90.8,40.7-90.8,90.6c0,21.1,8.3,39.4,16.4,54.5c2.8,5.2,5.8,10.3,9,15.3
					c1.2,1.9,2.6,3.8,3.9,5.7c5.6,7.9,11.5,16.1,11.9,32.8v7.8c0,14.6,11.9,26.5,26.6,26.5h46.3c14.6,0,26.6-11.9,26.6-26.5v-8.8
					c0.6-16,6.3-24,11.8-31.8c1.3-1.8,2.7-3.7,3.9-5.7c7.9-12.4,13.5-22.7,17.5-32.6c2.9-7.1,4.9-13.8,6.3-20.4
					c1.1-5.4,1.6-11.1,1.6-16.8C355.1,78.1,314.3,37.5,264.2,37.5z M264.2,45.8c45.6,0,82.5,36.8,82.5,82.3c0,5.1-0.5,10.2-1.5,15.2
					c-1.3,6.5-3.3,12.8-5.8,18.9c-4.5,11-10.5,21.4-16.8,31.3c-6.3,9.8-16.2,19.1-17,41.8v9c0,10-8.2,18.2-18.2,18.2h-46.3
					c-10.1,0-18.2-8.1-18.2-18.2v-7.9c-0.5-23.5-10.7-32.8-17.1-42.8c-3.1-4.8-6-9.7-8.7-14.8c-8.5-15.8-15.4-32.4-15.4-50.6
					C181.7,82.6,218.7,45.8,264.2,45.8"/>
			</g>
		</g>
	</g>
	<path class="st2" d="M234.4,320.6l17.9,8.6c6.6,3.2,17.3,3.2,23.9,0l17.9-8.6H234.4"/>
	<path class="st2" d="M297.7,317.5c0,2.6-2.1,4.6-4.7,4.6h-57.7c-2.6,0-4.7-2.1-4.7-4.6c0-2.6,2.1-4.6,4.7-4.6H293
		C295.6,312.9,297.7,315,297.7,317.5"/>
	<path class="st2" d="M301.6,304.2c0,2.6-2.1,4.6-4.7,4.6h-65.4c-2.6,0-4.7-2.1-4.7-4.6c0-2.6,2.1-4.6,4.7-4.6h65.4
		C299.5,299.5,301.6,301.6,301.6,304.2"/>
	<path class="st2" d="M301.6,290.8c0,2.6-2.1,4.6-4.7,4.6h-65.4c-2.6,0-4.7-2.1-4.7-4.6c0-2.6,2.1-4.6,4.7-4.6h65.4
		C299.5,286.2,301.6,288.3,301.6,290.8"/>
	<path class="st2" d="M305.6,277.5c0,2.6-2.1,4.6-4.7,4.6h-73.5c-2.6,0-4.7-2.1-4.7-4.6c0-2.6,2.1-4.6,4.7-4.6H301
		C303.6,272.8,305.6,274.9,305.6,277.5"/>
	<path class="st3" d="M236.8,327.5H41c-5.4,0-9.8-4.4-9.8-9.8V52.2c0-5.4,4.4-9.8,9.8-9.8h195.8c5.4,0,9.8,4.4,9.8,9.8v265.4
		C246.6,323.1,242.2,327.5,236.8,327.5z"/>
	<g>
		<g>
			<defs>
				<rect id="SVGID_3_" x="26.2" y="37.5" width="225.4" height="294.8"/>
			</defs>
			<clipPath id="SVGID_4_">
				<use xlink:href="#SVGID_3_"  style="overflow:visible;"/>
			</clipPath>
			<g class="st4">
				<path class="st5" d="M236.8,332.4H41c-8.1,0-14.7-6.6-14.7-14.7V52.2c0-8.1,6.6-14.7,14.7-14.7h195.8c8.1,0,14.7,6.6,14.7,14.7
					v265.4C251.5,325.8,244.9,332.4,236.8,332.4z M41,47.3c-2.7,0-4.9,2.2-4.9,4.9v265.4c0,2.7,2.2,4.9,4.9,4.9h195.8
					c2.7,0,4.9-2.2,4.9-4.9V52.2c0-2.7-2.2-4.9-4.9-4.9H41z"/>
			</g>
		</g>
	</g>
	<path class="st6" d="M50.8,62.1H227v59H50.8V62.1z"/>
	<path class="st5" d="M227,126H50.8c-2.7,0-4.9-2.2-4.9-4.9v-59c0-2.7,2.2-4.9,4.9-4.9H227c2.7,0,4.9,2.2,4.9,4.9v59
		C231.9,123.8,229.7,126,227,126z M55.7,116.1h166.4V67H55.7V116.1z"/>
	<path class="st7" d="M55.7,140.7h166.4v19.7H55.7V140.7z"/>
	<path class="st5" d="M222.1,165.3H55.7c-2.7,0-4.9-2.2-4.9-4.9v-19.7c0-2.7,2.2-4.9,4.9-4.9h166.4c2.7,0,4.9,2.2,4.9,4.9v19.7
		C227,163.1,224.8,165.3,222.1,165.3z M60.6,155.5h156.6v-9.8H60.6V155.5z"/>
	<path class="st7" d="M197.6,239H227v68.8h-29.4V239z"/>
	<path class="st5" d="M227,312.7h-29.4c-2.7,0-4.9-2.2-4.9-4.9V239c0-2.7,2.2-4.9,4.9-4.9H227c2.7,0,4.9,2.2,4.9,4.9v68.8
		C231.9,310.5,229.7,312.7,227,312.7z M202.5,302.9h19.6v-59h-19.6V302.9z"/>
	<path class="st7" d="M197.6,180H227v39.3h-29.4V180z"/>
	<path class="st5" d="M227,224.3h-29.4c-2.7,0-4.9-2.2-4.9-4.9V180c0-2.7,2.2-4.9,4.9-4.9H227c2.7,0,4.9,2.2,4.9,4.9v39.3
		C231.9,222.1,229.7,224.3,227,224.3z M202.5,214.4h19.6v-29.5h-19.6V214.4z"/>
	<path class="st7" d="M50.8,180h29.4v29.5H50.8V180z"/>
	<path class="st5" d="M80.2,214.4H50.8c-2.7,0-4.9-2.2-4.9-4.9V180c0-2.7,2.2-4.9,4.9-4.9h29.4c2.7,0,4.9,2.2,4.9,4.9v29.5
		C85.1,212.2,82.9,214.4,80.2,214.4z M55.7,204.6h19.6v-19.7H55.7V204.6z"/>
	<path class="st7" d="M99.8,180h29.4v29.5H99.8V180z"/>
	<path class="st5" d="M129.1,214.4H99.8c-2.7,0-4.9-2.2-4.9-4.9V180c0-2.7,2.2-4.9,4.9-4.9h29.4c2.7,0,4.9,2.2,4.9,4.9v29.5
		C134,212.2,131.8,214.4,129.1,214.4z M104.7,204.6h19.6v-19.7h-19.6V204.6z"/>
	<path class="st7" d="M148.7,180h29.4v29.5h-29.4V180z"/>
	<path class="st5" d="M178.1,214.4h-29.4c-2.7,0-4.9-2.2-4.9-4.9V180c0-2.7,2.2-4.9,4.9-4.9h29.4c2.7,0,4.9,2.2,4.9,4.9v29.5
		C183,212.2,180.8,214.4,178.1,214.4z M153.6,204.6h19.6v-19.7h-19.6V204.6z"/>
	<path class="st7" d="M50.8,229.2h29.4v29.5H50.8V229.2z"/>
	<path class="st5" d="M80.2,263.6H50.8c-2.7,0-4.9-2.2-4.9-4.9v-29.5c0-2.7,2.2-4.9,4.9-4.9h29.4c2.7,0,4.9,2.2,4.9,4.9v29.5
		C85.1,261.4,82.9,263.6,80.2,263.6z M55.7,253.8h19.6v-19.7H55.7V253.8z"/>
	<path class="st7" d="M99.8,229.2h29.4v29.5H99.8V229.2z"/>
	<path class="st5" d="M129.1,263.6H99.8c-2.7,0-4.9-2.2-4.9-4.9v-29.5c0-2.7,2.2-4.9,4.9-4.9h29.4c2.7,0,4.9,2.2,4.9,4.9v29.5
		C134,261.4,131.8,263.6,129.1,263.6z M104.7,253.8h19.6v-19.7h-19.6V253.8z"/>
	<path class="st7" d="M148.7,229.2h29.4v29.5h-29.4V229.2z"/>
	<path class="st5" d="M178.1,263.6h-29.4c-2.7,0-4.9-2.2-4.9-4.9v-29.5c0-2.7,2.2-4.9,4.9-4.9h29.4c2.7,0,4.9,2.2,4.9,4.9v29.5
		C183,261.4,180.8,263.6,178.1,263.6z M153.6,253.8h19.6v-19.7h-19.6V253.8z"/>
	<path class="st7" d="M50.8,278.3h29.4v29.5H50.8V278.3z"/>
	<path class="st5" d="M80.2,312.7H50.8c-2.7,0-4.9-2.2-4.9-4.9v-29.5c0-2.7,2.2-4.9,4.9-4.9h29.4c2.7,0,4.9,2.2,4.9,4.9v29.5
		C85.1,310.5,82.9,312.7,80.2,312.7z M55.7,302.9h19.6v-19.7H55.7V302.9z"/>
	<path class="st7" d="M99.8,278.3h29.4v29.5H99.8V278.3z"/>
	<path class="st5" d="M129.1,312.7H99.8c-2.7,0-4.9-2.2-4.9-4.9v-29.5c0-2.7,2.2-4.9,4.9-4.9h29.4c2.7,0,4.9,2.2,4.9,4.9v29.5
		C134,310.5,131.8,312.7,129.1,312.7z M104.7,302.9h19.6v-19.7h-19.6V302.9z"/>
	<path class="st7" d="M148.7,278.3h29.4v29.5h-29.4V278.3z"/>
	<path class="st5" d="M178.1,312.7h-29.4c-2.7,0-4.9-2.2-4.9-4.9v-29.5c0-2.7,2.2-4.9,4.9-4.9h29.4c2.7,0,4.9,2.2,4.9,4.9v29.5
		C183,310.5,180.8,312.7,178.1,312.7z M153.6,302.9h19.6v-19.7h-19.6V302.9z"/>
</g>
</svg>
