<?xml version="1.0" encoding="UTF-8" standalone="no"?>
<svg
   xmlns:dc="http://purl.org/dc/elements/1.1/"
   xmlns:cc="http://creativecommons.org/ns#"
   xmlns:rdf="http://www.w3.org/1999/02/22-rdf-syntax-ns#"
   xmlns:svg="http://www.w3.org/2000/svg"
   xmlns="http://www.w3.org/2000/svg"
   xmlns:sodipodi="http://sodipodi.sourceforge.net/DTD/sodipodi-0.dtd"
   xmlns:inkscape="http://www.inkscape.org/namespaces/inkscape"
   width="265"
   height="247"
   viewBox="0 0 265 247"
   fill="none"
   version="1.1"
   id="svg4"
   sodipodi:docname="Vector.svg"
   inkscape:version="1.0.1 (3bc2e813f5, 2020-09-07)">
  <metadata
     id="metadata10">
    <rdf:RDF>
      <cc:Work
         rdf:about="">
        <dc:format>image/svg+xml</dc:format>
        <dc:type
           rdf:resource="http://purl.org/dc/dcmitype/StillImage" />
      </cc:Work>
    </rdf:RDF>
  </metadata>
  <defs
     id="defs8">
    <linearGradient
       id="paint7_linear"
       x1="1598.88"
       y1="617.927"
       x2="1488.4301"
       y2="359.71899"
       gradientUnits="userSpaceOnUse"
       gradientTransform="translate(48.243163,54.884921)">
      <stop
         stop-color="#9AA7FC"
         id="stop63" />
      <stop
         offset="1"
         stop-color="#DBDEFF"
         id="stop65" />
    </linearGradient>
    <linearGradient
       id="paint6_linear"
       x1="151.121"
       y1="114.098"
       x2="138.53101"
       y2="84.828903"
       gradientUnits="userSpaceOnUse"
       gradientTransform="translate(48.243163,54.884921)">
      <stop
         stop-color="#9AA7FC"
         id="stop58" />
      <stop
         offset="1"
         stop-color="#DBDEFF"
         id="stop60" />
    </linearGradient>
    <linearGradient
       id="paint5_linear"
       x1="684.85999"
       y1="469.254"
       x2="704.237"
       y2="617.54498"
       gradientUnits="userSpaceOnUse"
       gradientTransform="translate(48.243163,54.884921)">
      <stop
         stop-color="#03ABFF"
         id="stop53" />
      <stop
         offset="1"
         stop-color="#80FFF0"
         id="stop55" />
    </linearGradient>
    <linearGradient
       id="paint4_linear"
       x1="1216.92"
       y1="383.88699"
       x2="875.22699"
       y2="769.18402"
       gradientUnits="userSpaceOnUse"
       gradientTransform="translate(48.243163,54.884921)">
      <stop
         stop-color="#9AA7FC"
         id="stop48" />
      <stop
         offset="1"
         stop-color="#9584FF"
         id="stop50" />
    </linearGradient>
    <linearGradient
       id="paint3_linear"
       x1="62.124298"
       y1="5.44454"
       x2="88.581802"
       y2="132.83701"
       gradientUnits="userSpaceOnUse"
       gradientTransform="translate(48.243163,54.884921)">
      <stop
         stop-color="#9AA7FC"
         id="stop43" />
      <stop
         offset="1"
         stop-color="#9584FF"
         id="stop45" />
    </linearGradient>
    <linearGradient
       id="paint2_linear"
       x1="99.728401"
       y1="102.634"
       x2="67.1614"
       y2="60.711498"
       gradientUnits="userSpaceOnUse"
       gradientTransform="translate(48.243163,54.884921)">
      <stop
         stop-color="#03ABFF"
         id="stop38" />
      <stop
         offset="1"
         stop-color="#80FFF0"
         id="stop40" />
    </linearGradient>
    <linearGradient
       id="paint1_linear"
       x1="98.9104"
       y1="95.169502"
       x2="100.853"
       y2="40.989101"
       gradientUnits="userSpaceOnUse"
       gradientTransform="translate(48.243163,54.884921)">
      <stop
         stop-color="#ED7264"
         id="stop33" />
      <stop
         offset="1"
         stop-color="#FFB39F"
         id="stop35" />
    </linearGradient>
    <linearGradient
       id="paint0_linear"
       x1="69.180099"
       y1="204.87199"
       x2="62.431499"
       y2="-38.868999"
       gradientUnits="userSpaceOnUse"
       gradientTransform="translate(48.243163,54.884921)">
      <stop
         stop-color="#FFAEBF"
         id="stop28" />
      <stop
         offset="1"
         stop-color="white"
         id="stop30" />
    </linearGradient>
  </defs>
  <sodipodi:namedview
     pagecolor="#ffffff"
     bordercolor="#666666"
     borderopacity="1"
     objecttolerance="10"
     gridtolerance="10"
     guidetolerance="10"
     inkscape:pageopacity="0"
     inkscape:pageshadow="2"
     inkscape:window-width="1920"
     inkscape:window-height="1001"
     id="namedview6"
     showgrid="false"
     inkscape:zoom="3.3603239"
     inkscape:cx="132.5"
     inkscape:cy="123.5"
     inkscape:window-x="-9"
     inkscape:window-y="-9"
     inkscape:window-maximized="1"
     inkscape:current-layer="svg4" />
  <path
     d="M214.156 189.352C216.07 178.728 212.659 173.133 211.191 164.73C209.395 154.476 208.394 147.193 215.029 139.168C225.872 126.056 247.864 90.4014 206.667 72.9401C191.898 66.6811 174.902 70.9625 160.886 76.9349C148.962 82.0237 136.374 75.8116 125.399 72.2703C111.921 67.9199 97.4959 64.7716 83.0769 64.0314C53.4498 62.5645 36.8883 75.4828 25.3759 97.5715C21.896 104.242 16.8938 115.037 20.957 133.393C26.4482 158.173 46.7616 172.795 77.0189 180.343C83.9459 182.065 91.1178 182.619 98.1105 184.007C105.399 185.42 112.495 187.689 119.25 190.768C135.004 197.909 148.942 209.464 165.836 213.276C174.807 215.285 184.142 214.989 192.969 212.414C203.933 209.175 212.118 200.598 214.156 189.352Z"
     fill="#F2FBFF"
     id="path2" />
  <path
     d="M 128.70926,78.197421 H 99.529363 c -0.7922,-0.0021 -1.5557,0.296 -2.1368,0.8344 -0.581,0.5384 -0.9365,1.277 -0.9947,2.067 l -3.5915,59.049999 c -0.0317,0.4302 0.0258,0.8623 0.1689,1.2692 0.1431,0.4068 0.3687,0.7798 0.6627,1.0954 0.294,0.3156 0.6501,0.567 1.0458,0.7386 0.3958,0.1716 0.8227,0.2595 1.254,0.2583 h 36.363097 c 0.4313,0.001 0.8582,-0.0867 1.2539,-0.2583 0.3958,-0.1716 0.7518,-0.423 1.0458,-0.7386 0.294,-0.3156 0.5196,-0.6886 0.6628,-1.0954 0.1431,-0.4069 0.2006,-0.839 0.1689,-1.2692 l -3.6044,-59.049999 c -0.058,-0.7878 -0.4116,-1.5246 -0.99,-2.0626 -0.5783,-0.5381 -1.3387,-0.8377 -2.1286,-0.8388 z"
     fill="url(#paint0_linear)"
     id="path2-7"
     style="fill:url(#paint0_linear)" />
  <path
     d="m 121.86066,84.600521 v -9.8417 c -0.0169,-2.0419 -0.8408,-3.9943 -2.2919,-5.4311 -1.4511,-1.4367 -3.4116,-2.2412 -5.4536,-2.2377 -2.0288,0.0167 -3.9697,0.83 -5.4043,2.2646 -1.4346,1.4346 -2.2479,3.3755 -2.2646,5.4042 v 9.8417"
     stroke="#8b5493"
     stroke-width="2.12"
     stroke-linecap="round"
     stroke-linejoin="round"
     id="path4" />
  <path
     d="m 162.09516,90.557024 h -29.1801 c -0.7921,-0.002 -1.5556,0.296 -2.1367,0.8344 -0.5811,0.5383 -0.9365,1.276896 -0.9947,2.066896 l -3.5916,46.6905 c -0.032,0.4334 0.0266,0.8687 0.1721,1.2782 0.1454,0.4096 0.3744,0.7843 0.6726,1.1005 0.2981,0.3162 0.6588,0.5669 1.0591,0.7361 0.4003,0.1692 0.8315,0.2532 1.266,0.2467 h 36.3633 c 0.431,0.001 0.858,-0.0868 1.254,-0.2584 0.395,-0.1715 0.752,-0.423 1.046,-0.7386 0.294,-0.3156 0.519,-0.6885 0.662,-1.0954 0.143,-0.4069 0.201,-0.839 0.169,-1.2691 l -3.604,-46.6905 c -0.059,-0.7944 -0.418,-1.536696 -1.004,-2.075696 -0.587,-0.5391 -1.357,-0.8343 -2.153,-0.8256 z"
     fill="url(#paint1_linear)"
     id="path6"
     style="fill:url(#paint1_linear)" />
  <path
     d="m 155.24516,96.96082 v -9.841599 c -0.017,-2.042 -0.841,-3.9944 -2.292,-5.4311 -1.451,-1.4368 -3.411,-2.2412 -5.4533,-2.2378 v 0 c -2.0287,0.0167 -3.9696,0.8301 -5.4042,2.2646 -1.4346,1.4346 -2.2479,3.3755 -2.2646,5.4043 v 9.841599"
     stroke="#8b5493"
     stroke-width="2.12"
     stroke-linecap="round"
     stroke-linejoin="round"
     id="path8" />
  <path
     d="m 143.42136,117.53922 h -29.2055 c -0.7933,0.001 -1.5569,0.302 -2.1377,0.8425 -0.5807,0.5405 -0.9357,1.2805 -0.9938,2.0717 l -3.5915,19.6961 c -0.0316,0.4291 0.0255,0.8601 0.1679,1.2661 0.1423,0.406 0.3668,0.7783 0.6594,1.0937 0.2926,0.3155 0.6471,0.5672 1.0414,0.7395 0.3942,0.1723 0.8197,0.2616 1.2499,0.2622 h 36.3759 c 0.4307,-7e-4 0.8568,-0.09 1.2516,-0.2622 0.3952,-0.1722 0.7502,-0.4236 1.0442,-0.7388 0.293,-0.3152 0.519,-0.6874 0.663,-1.0935 0.144,-0.406 0.202,-0.8373 0.173,-1.267 l -3.6047,-19.6961 c -0.0546,-0.7857 -0.4033,-1.522 -0.9766,-2.0621 -0.5732,-0.5401 -1.329,-0.8444 -2.1165,-0.8521 z"
     fill="url(#paint2_linear)"
     id="path10"
     style="fill:url(#paint2_linear)" />
  <path
     d="m 136.54426,123.95452 v -9.8417 c 0,-2.0542 -0.816,-4.0243 -2.2686,-5.4769 -1.4526,-1.4525 -3.4227,-2.2686 -5.4769,-2.2686 v 0 c -2.042,0.0169 -3.9944,0.8408 -5.4311,2.2919 -1.4368,1.4511 -2.2412,3.4116 -2.2378,5.4536 v 9.8417"
     stroke="#ffffff"
     stroke-width="2.12"
     stroke-linecap="round"
     stroke-linejoin="round"
     id="path12" />
  <path
     d="m 108.43746,147.57522 h 57.9887 c 0.426,0.001 0.842,-0.1315 1.188,-0.3792 0.346,-0.2477 0.606,-0.5979 0.742,-1.0011 l 15.236,-44.7988 c 0.107,-0.3057 0.139,-0.6328 0.092,-0.9533 -0.047,-0.3205 -0.171,-0.6249 -0.361,-0.8873 -0.188,-0.2653 -0.437,-0.4815 -0.726,-0.6305 -0.289,-0.149 -0.61,-0.2265 -0.935,-0.2258 H 74.758463 l -1.9428,-3.8344 c -0.1663,-0.3427 -0.4262,-0.6314 -0.7496,-0.8327 -0.3234,-0.2012 -0.6972,-0.3069 -1.0781,-0.3049 h -16.11733 c -0.28129,-0.0223 -0.56415,0.0139 -0.83078,0.1062 -0.26663,0.0924 -0.51127,0.2389 -0.71853,0.4304 -0.20725,0.1915 -0.37264,0.4238 -0.48575,0.6823 -0.11312,0.2585 -0.17151,0.5376 -0.17151,0.8198 0,0.2821 0.0584,0.5613 0.17151,0.8198 0.11311,0.2585 0.2785,0.4908 0.48575,0.6822 0.20726,0.1915 0.4519,0.338 0.71853,0.4304 0.26663,0.0923 0.54949,0.1285 0.83078,0.1062 h 14.86473 l 28.7582,57.8234 c 0.9438,1.922 2.408797,3.54 4.228097,4.67 1.8192,1.13 3.9193,1.726 6.0609,1.72 h 58.7946 c 0.539,0 1.056,-0.214 1.437,-0.595 0.381,-0.381 0.595,-0.898 0.595,-1.437 0,-0.539 -0.214,-1.056 -0.595,-1.437 -0.381,-0.381 -0.898,-0.595 -1.437,-0.595 h -58.7946 c -1.3816,0.003 -2.7363,-0.381 -3.9109,-1.109 -1.1747,-0.727 -2.1222,-1.769 -2.7354,-3.0068 l -3.067597,-6.1734 h 9.368797 z m -25.294397,-31.9534 h 9.6372 l 5.1125,11.5032 h -9.0364 z m 14.0595,0 h 12.538597 l 4.2179,11.5032 h -11.58 z m 7.834997,-12.7814 3.2082,8.7297 H 95.413263 l -3.9112,-8.7297 z m 19.5556,0 1.8916,8.7297 h -13.8678 l -3.2081,-8.7297 z m 45.885,24.2846 h -8.039 l 2.415,-11.5032 h 9.523 z m -12.206,0 h -10.9793 l -0.4984,-11.5032 h 13.8937 z m -10.2252,16.4497 -0.5368,-12.3724 h 9.97 l -2.557,12.3724 z m -10.4424,0 -2.6713,-12.3724 h 8.4869 l 0.5368,12.3724 z m -13.2287,0 -4.5374,-12.3724 h 10.9281 l 2.6713,12.3724 z m 5.5216,-16.4497 h -11.5033 l -4.2179,-11.5032 h 13.2927 z m 1.6871,-11.5032 h 11.1837 l 0.4985,11.5032 h -9.2026 z m 15.082,-4.0773 -0.3834,-8.7297 h 17.153 l -1.841,8.7297 z m -4.0772,0 h -11.9506 l -1.8917,-8.7297 h 13.4077 z m -27.0966,19.5939 4.5374,12.3724 h -10.2251 l -5.5471,-12.3724 z m 49.4254,12.3724 h -5.905 l 2.557,-12.3724 h 7.515 z m 10.89,-31.9535 h -10.059 l 1.841,-8.7297 h 11.183 z m -88.766797,-8.7808 3.9751,8.7297 h -9.8928 l -4.3457,-8.7297 z m 3.8345,28.3619 h 8.8575 l 5.547097,12.3724 h -8.243997 z"
     fill="url(#paint3_linear)"
     id="path14"
     style="fill:url(#paint3_linear)" />
  <path
     d="m 124.05796,171.33592 c 0,1.181 -0.3501,2.335 -1.006,3.316 -0.6558,0.982 -1.5881,1.747 -2.6787,2.199 -1.0907,0.452 -2.2909,0.57 -3.4487,0.34 -1.1579,-0.231 -2.2214,-0.799 -3.0562,-1.634 -0.8348,-0.835 -1.4032,-1.898 -1.6336,-3.056 -0.2303,-1.158 -0.1121,-2.358 0.3397,-3.449 0.4518,-1.091 1.2168,-2.023 2.1984,-2.679 0.9816,-0.656 2.1356,-1.006 3.3162,-1.006 0.7838,0 1.56,0.155 2.2842,0.455 0.7242,0.3 1.3822,0.739 1.9364,1.294 0.5543,0.554 0.994,1.212 1.2939,1.936 0.3,0.724 0.4544,1.5 0.4544,2.284 z"
     fill="#414582"
     id="path16" />
  <path
     d="m 156.10216,171.33592 c 0,1.181 -0.35,2.335 -1.006,3.316 -0.656,0.982 -1.588,1.747 -2.679,2.199 -1.091,0.452 -2.291,0.57 -3.449,0.34 -1.1575,-0.231 -2.2211,-0.799 -3.0558,-1.634 -0.8348,-0.835 -1.4033,-1.898 -1.6336,-3.056 -0.2303,-1.158 -0.1121,-2.358 0.3397,-3.449 0.4517,-1.091 1.2168,-2.023 2.1984,-2.679 0.9815,-0.656 2.1353,-1.006 3.3163,-1.006 1.583,0 3.101,0.629 4.22,1.749 1.12,1.119 1.749,2.637 1.749,4.22 z"
     fill="#414582"
     id="path18" />
  <path
     d="m 65.174163,92.55092 h -14.57074 c -0.95296,0 -1.72549,0.7725 -1.72549,1.7255 v 2.9653 c 0,0.9529 0.77253,1.7255 1.72549,1.7255 h 14.57074 c 0.953,0 1.7255,-0.7726 1.7255,-1.7255 v -2.9653 c 0,-0.953 -0.7725,-1.7255 -1.7255,-1.7255 z"
     fill="url(#paint4_linear)"
     id="path20"
     style="fill:url(#paint4_linear)" />
  <path
     d="m 83.118863,73.941321 h 0.2684 c 0.1695,0 0.332,0.0674 0.4519,0.1872 0.1198,0.1199 0.1872,0.2824 0.1872,0.4519 0,0.1695 -0.0674,0.332 -0.1872,0.4519 -0.1199,0.1198 -0.2824,0.1872 -0.4519,0.1872 h -0.2684 c -1.0392,0.2347 -1.9905,0.7591 -2.7438,1.5124 -0.7533,0.7533 -1.2777,1.7046 -1.5124,2.7438 l -0.0639,0.2684 c -0.0287,0.1381 -0.1041,0.2622 -0.2135,0.3512 -0.1094,0.0891 -0.2462,0.1377 -0.3873,0.1377 -0.141,0 -0.2778,-0.0486 -0.3872,-0.1377 -0.1095,-0.089 -0.1848,-0.2131 -0.2135,-0.3512 v -0.2684 c -0.2347,-1.0392 -0.7591,-1.9905 -1.5124,-2.7438 -0.7533,-0.7533 -1.7046,-1.2777 -2.7438,-1.5124 h -0.2684 c -0.1695,0 -0.332,-0.0674 -0.4519,-0.1872 -0.1198,-0.1199 -0.1872,-0.2824 -0.1872,-0.4519 0,-0.1695 0.0674,-0.332 0.1872,-0.4519 0.1199,-0.1198 0.2824,-0.1872 0.4519,-0.1872 h 0.2684 c 1.0405,-0.2318 1.9934,-0.7553 2.7471,-1.5091 0.7538,-0.7537 1.2772,-1.7066 1.5091,-2.7471 v -0.2556 c 0.0287,-0.1381 0.104,-0.2622 0.2135,-0.3513 0.1094,-0.089 0.2462,-0.1376 0.3872,-0.1376 0.1411,0 0.2779,0.0486 0.3873,0.1376 0.1094,0.0891 0.1848,0.2132 0.2135,0.3513 l 0.0639,0.2556 c 0.2318,1.0405 0.7553,1.9934 1.5091,2.7471 0.7537,0.7538 1.7066,1.2773 2.7471,1.5091 z"
     fill="url(#paint5_linear)"
     id="path22"
     style="fill:url(#paint5_linear)" />
  <path
     d="m 194.23916,144.96702 h 0.268 c 0.17,0 0.332,0.0673 0.452,0.1872 0.12,0.1198 0.187,0.2824 0.187,0.4519 0,0.1695 -0.067,0.332 -0.187,0.4518 -0.12,0.1199 -0.282,0.1872 -0.452,0.1872 h -0.268 c -1.039,0.2347 -1.991,0.7591 -2.744,1.5124 -0.753,0.7533 -1.278,1.7047 -1.512,2.7438 v 0.2557 c -0.035,0.135 -0.113,0.2548 -0.223,0.3404 -0.11,0.0856 -0.245,0.1321 -0.385,0.1321 -0.139,0 -0.274,-0.0465 -0.384,-0.1321 -0.11,-0.0856 -0.188,-0.2054 -0.223,-0.3404 l -0.064,-0.2557 c -0.231,-1.0404 -0.755,-1.9933 -1.509,-2.7471 -0.753,-0.7538 -1.706,-1.2772 -2.747,-1.5091 h -0.255 c -0.17,0 -0.332,-0.0673 -0.452,-0.1872 -0.12,-0.1198 -0.187,-0.2823 -0.187,-0.4518 0,-0.1695 0.067,-0.3321 0.187,-0.4519 0.12,-0.1199 0.282,-0.1872 0.452,-0.1872 h 0.255 c 1.039,-0.2347 1.991,-0.7591 2.744,-1.5124 0.753,-0.7533 1.278,-1.7047 1.512,-2.7438 l 0.064,-0.2684 c 0.035,-0.1351 0.113,-0.2549 0.223,-0.3405 0.11,-0.0856 0.245,-0.132 0.384,-0.132 0.14,0 0.275,0.0464 0.385,0.132 0.11,0.0856 0.188,0.2054 0.223,0.3405 v 0.2684 c 0.236,1.0385 0.761,1.9891 1.514,2.7421 0.753,0.7531 1.703,1.278 2.742,1.5141 z"
     fill="url(#paint6_linear)"
     id="path24"
     style="fill:url(#paint6_linear)" />
  <path
     d="m 167.38816,59.882051 h 0.268 c 0.135,0.03421 0.255,0.11249 0.341,0.22245 0.085,0.10996 0.132,0.24532 0.132,0.38466 0,0.13934 -0.047,0.2747 -0.132,0.38466 -0.086,0.10997 -0.206,0.18825 -0.341,0.22246 l -0.268,0.0639 c -1.039,0.2326 -1.99,0.75654 -2.741,1.51038 -0.752,0.75385 -1.273,1.70635 -1.502,2.74586 l -0.064,0.2556 c -0.035,0.1351 -0.113,0.2549 -0.223,0.3405 -0.11,0.0855 -0.245,0.132 -0.384,0.132 -0.14,0 -0.275,-0.0465 -0.385,-0.132 -0.11,-0.0856 -0.188,-0.2054 -0.223,-0.3405 l -0.063,-0.2556 c -0.23,-1.03951 -0.751,-1.99201 -1.503,-2.74586 -0.751,-0.75384 -1.702,-1.27778 -2.741,-1.51038 l -0.268,-0.0639 c -0.135,-0.03421 -0.255,-0.11249 -0.341,-0.22246 -0.085,-0.10996 -0.132,-0.24532 -0.132,-0.38466 0,-0.13934 0.047,-0.2747 0.132,-0.38466 0.086,-0.10996 0.206,-0.18824 0.341,-0.22245 h 0.268 c 1.038,-0.23545 1.987,-0.76033 2.738,-1.5137 0.751,-0.75338 1.273,-1.70435 1.506,-2.742511 l 0.063,-0.268409 c 0.035,-0.135074 0.113,-0.254879 0.223,-0.340461 0.11,-0.08558 0.245,-0.132049 0.385,-0.132049 0.139,0 0.274,0.04647 0.384,0.132049 0.11,0.08558 0.188,0.205387 0.223,0.340461 l 0.064,0.268409 c 0.232,1.038161 0.754,1.989131 1.505,2.742511 0.751,0.75337 1.701,1.27825 2.738,1.5137 z"
     fill="url(#paint7_linear)"
     id="path26"
     style="fill:url(#paint7_linear)" />
</svg>
