<svg xmlns="http://www.w3.org/2000/svg" viewBox="0 0 90.71 95.38"><g id="Capa_2" data-name="Capa 2"><g id="Hoja_1" data-name="Hoja 1"><path d="M88.13,45.33A34,34,0,0,0,80.84,34a32.67,32.67,0,0,0-11-7.45A35.51,35.51,0,0,0,56,23.91c-.68,0-1.34.06-2,.09A19.32,19.32,0,0,0,55,18a16,16,0,0,0-6-13Q42.92,0,31,0H0V69.09H22.48a34.66,34.66,0,0,0,1.46,4.77,34.13,34.13,0,0,0,7.29,11.35,33.26,33.26,0,0,0,11,7.5,35.32,35.32,0,0,0,13.85,2.67,35.45,35.45,0,0,0,13.72-2.62,32.67,32.67,0,0,0,11-7.45,34,34,0,0,0,7.29-11.4,38.67,38.67,0,0,0,2.58-14.27A38.55,38.55,0,0,0,88.13,45.33ZM53.38,25.68a13.07,13.07,0,0,1-.87,1.71A14.44,14.44,0,0,0,53.38,25.68ZM48.3,33.76c-.55-.26-1.13-.47-1.71-.69h0C47.17,33.29,47.75,33.5,48.3,33.76Zm1.59-3.14.09-.08Zm1.5,5.05c-.13-.1-.25-.2-.39-.29C51.14,35.47,51.26,35.57,51.39,35.67ZM29.15,12q5.34,0,8.2,2t2.85,6.12a7.07,7.07,0,0,1-2.85,6.17q-2.87,2-8.2,2H14.58V12Zm-14.57,45V40h17.2q5.61,0,8.6,2.07t3,6.51q0,4.35-3,6.42t-8.6,2.07ZM74.37,68.58a21.69,21.69,0,0,1-4.21,7,18.94,18.94,0,0,1-6.29,4.64A18.66,18.66,0,0,1,56,81.85a18.89,18.89,0,0,1-7.87-1.63,18.17,18.17,0,0,1-6.29-4.64,21.84,21.84,0,0,1-4-6.75c-1.6.15-3.26.26-5,.26q12.49,0,18.92-5t6.43-13.87A18.67,18.67,0,0,0,55.5,40.07a18.42,18.42,0,0,0-1.88-2.4h0A21.15,21.15,0,0,1,56,37.43a18.81,18.81,0,0,1,7.84,1.63,19.22,19.22,0,0,1,6.29,4.64,21.74,21.74,0,0,1,4.21,7,25.5,25.5,0,0,1,1.49,8.93A25.56,25.56,0,0,1,74.37,68.58Z" style="fill:#fff"/></g></g></svg>