<?xml version="1.0" encoding="UTF-8" standalone="no"?>
<svg
   xmlns:dc="http://purl.org/dc/elements/1.1/"
   xmlns:cc="http://creativecommons.org/ns#"
   xmlns:rdf="http://www.w3.org/1999/02/22-rdf-syntax-ns#"
   xmlns:svg="http://www.w3.org/2000/svg"
   xmlns="http://www.w3.org/2000/svg"
   xmlns:sodipodi="http://sodipodi.sourceforge.net/DTD/sodipodi-0.dtd"
   xmlns:inkscape="http://www.inkscape.org/namespaces/inkscape"
   width="265"
   height="247"
   viewBox="0 0 265 247"
   fill="none"
   version="1.1"
   id="svg4"
   sodipodi:docname="vndo-tienda-online.svg"
   inkscape:version="1.0.1 (3bc2e813f5, 2020-09-07)">
  <metadata
     id="metadata10">
    <rdf:RDF>
      <cc:Work
         rdf:about="">
        <dc:format>image/svg+xml</dc:format>
        <dc:type
           rdf:resource="http://purl.org/dc/dcmitype/StillImage" />
        <dc:title></dc:title>
      </cc:Work>
    </rdf:RDF>
  </metadata>
  <defs
     id="defs8">
    <linearGradient
       id="paint1_linear"
       x1="64.601097"
       y1="-25.3825"
       x2="83.620796"
       y2="46.5359"
       gradientUnits="userSpaceOnUse"
       gradientTransform="translate(57.479014,66.701089)">
      <stop
         stop-color="#FEC637"
         id="stop35" />
      <stop
         offset="1"
         stop-color="#FDB64D"
         id="stop37" />
    </linearGradient>
    <linearGradient
       id="paint0_linear"
       x1="4597.8301"
       y1="927.65503"
       x2="29092.1"
       y2="927.65503"
       gradientUnits="userSpaceOnUse"
       gradientTransform="translate(57.479014,66.701089)">
      <stop
         stop-color="#8D76EC"
         id="stop30" />
      <stop
         offset="1"
         stop-color="#AA80F8"
         id="stop32" />
    </linearGradient>
  </defs>
  <sodipodi:namedview
     pagecolor="#ffffff"
     bordercolor="#666666"
     borderopacity="1"
     objecttolerance="10"
     gridtolerance="10"
     guidetolerance="10"
     inkscape:pageopacity="0"
     inkscape:pageshadow="2"
     inkscape:window-width="1920"
     inkscape:window-height="1001"
     id="namedview6"
     showgrid="false"
     inkscape:zoom="2.1502591"
     inkscape:cx="-12.000661"
     inkscape:cy="83.757181"
     inkscape:window-x="-9"
     inkscape:window-y="-9"
     inkscape:window-maximized="1"
     inkscape:current-layer="svg4"
     inkscape:document-rotation="0" />
  <path
     d="m 29.843387,92.472154 c 2.1206,10.584296 7.3482,14.536396 11.7992,21.813196 5.4359,8.8779 9.0414,15.2842 5.8162,25.1852 -5.2701,16.178 -12.633,57.417 32.0979,58.531 16.035,0.399 30.271403,-9.825 41.116003,-20.527 9.222,-9.111 23.212,-7.956 34.721,-8.692 14.133,-0.902 28.707,-3.271 42.39,-7.877 28.096,-9.515 38.757,-27.612 41.354,-52.3851 0.788,-7.4821 1.476,-19.360296 -9.043,-34.941596 -14.207,-21.033 -38.471,-27.1736 -69.386,-23.0842 -7.075,0.942 -13.95,3.0605 -20.964,4.3368 -7.298,1.3626 -14.731,1.8573 -22.145,1.4739 -17.2757,-0.857 -34.482703,-6.4875 -51.596503,-3.8291 -9.0819,1.4251 -17.6556,5.1288 -24.9212,10.7655 -9.0081,7.0385 -13.4717,18.0217 -11.2386,29.2304 z"
     fill="#f2fbff"
     id="path2" />
  <path
     d="M 197.63802,73.706949 H 77.044414 V 150.99639 H 197.63802 Z"
     fill="#ffffff"
     id="path2-9" />
  <path
     d="M 200.35602,67.107339 H 73.922714 c -1.8656,0 -3.3763,1.20654 -3.3763,2.69697 v 85.228281 c 0,1.4905 1.5107,2.697 3.3763,2.697 H 200.35602 c 1.855,0 3.366,-1.2065 3.366,-2.697 V 69.804309 c 0,-1.49043 -1.521,-2.69697 -3.366,-2.69697 z m -2.717,83.889951 H 77.045514 V 73.707819 H 197.63902 Z"
     fill="#989efc"
     id="path4" />
  <path
     d="m 215.72602,155.19429 -78.537,0.6489 -78.526466,-0.6489 -0.263618,2.5347 c 0,0 3.041698,2.7984 5.890748,3.2445 2.51447,0.4055 58.806136,0.1014 72.899336,0 14.0932,0.0811 70.395,0.3853 72.909,0 2.87,-0.4461 5.891,-3.2445 5.891,-3.2445 z"
     fill="url(#paint0_linear)"
     id="path6"
     style="fill:url(#paint0_linear)" />
  <path
     d="M 215.98902,157.72939 H 58.398936 v -0.5273 -3.1836 H 215.98902 Z"
     fill="#414582"
     id="path8" />
  <path
     d="m 196.79702,94.076389 -8.111,-27.3753 H 85.674214 l -8.1112,27.3753 c 0.0365,2.0946 0.8015,4.111201 2.1636,5.703001 1.362,1.5918 3.236,2.6594 5.2998,3.0194 2.0639,0.36 4.1886,-0.0102 6.0091,-1.0469 1.8205,-1.0367 3.2231,-2.6752 3.9665,-4.633801 0.6541,1.706801 1.810599,3.175101 3.316799,4.210901 1.5061,1.0357 3.290997,1.5902 5.118897,1.5902 1.8279,0 3.6128,-0.5545 5.1189,-1.5902 1.5061,-1.0358 2.66261,-2.5041 3.31671,-4.210901 0.6541,1.706801 1.8106,3.175101 3.3167,4.210901 1.5062,1.0357 3.2911,1.5902 5.119,1.5902 1.8279,0 3.6127,-0.5545 5.1189,-1.5902 1.5061,-1.0358 2.6626,-2.5041 3.3167,-4.210901 0.6518,1.707801 1.8069,3.177301 3.3123,4.214101 1.5055,1.0369 3.2903,1.592 5.1183,1.592 1.8279,0 3.6127,-0.5551 5.1182,-1.592 1.5055,-1.0368 2.6605,-2.5063 3.3123,-4.214101 0.6541,1.706801 1.8106,3.175101 3.3167,4.210901 1.5062,1.0357 3.2911,1.5902 5.119,1.5902 1.8279,0 3.6126,-0.5545 5.1186,-1.5902 1.506,-1.0358 2.663,-2.5041 3.317,-4.210901 0.654,1.706801 1.811,3.175101 3.317,4.210901 1.506,1.0357 3.291,1.5902 5.119,1.5902 1.828,0 3.612,-0.5545 5.119,-1.5902 1.506,-1.0358 2.662,-2.5041 3.316,-4.210901 0.748,1.952101 2.151,3.583701 3.969,4.615401 1.818,1.0316 3.939,1.3992 5.998,1.0398 2.059,-0.3594 3.93,-1.4234 5.291,-3.01 1.361,-1.5865 2.129,-3.596901 2.171,-5.686901"
     fill="url(#paint1_linear)"
     id="path10"
     style="fill:url(#paint1_linear)" />
  <path
     d="m 146.43622,66.701089 h -18.2502 v 27.3753 c 0,5.039601 4.0855,9.125101 9.1251,9.125101 5.0397,0 9.1251,-4.0855 9.1251,-9.125101 z"
     fill="#968cfe"
     id="path12" />
  <path
     d="m 179.89502,66.701089 h -18.25 v 27.3753 c 0,5.039601 4.085,9.125101 9.125,9.125101 5.04,0 9.125,-4.0855 9.125,-9.125101 z"
     fill="#968cfe"
     id="path14" />
  <path
     d="M 112.97722,66.701089 H 94.727014 v 27.3753 c 0,5.039601 4.085499,9.125101 9.125096,9.125101 5.0397,0 9.12511,-4.0855 9.12511,-9.125101 z"
     fill="#968cfe"
     id="path16" />
  <path
     d="m 114.93312,115.65229 h 68.9449"
     stroke="#ddccee"
     stroke-width="3"
     stroke-miterlimit="10"
     id="path18" />
  <path
     d="m 104.77281,114.76009 c 0,1.3808 -0.4092,2.7306 -1.1759,3.879 -0.7667,1.1484 -1.8566,2.0437 -3.1319,2.5731 -1.275297,0.5293 -2.678797,0.6688 -4.033397,0.4009 -1.354499,-0.2679 -2.599299,-0.9312 -3.577099,-1.9062 -0.9778,-0.9749 -1.6447,-2.2178 -1.9165,-3.5715 -0.2719,-1.3538 -0.1364,-2.7578 0.3892,-4.0346 0.5257,-1.2768 1.4179,-2.3692 2.564,-3.1393 1.1461,-0.77 2.494799,-1.1831 3.875599,-1.1871 0.919,-0.003 1.8296,0.176 2.679497,0.5259 0.8499,0.3499 1.6224,0.864 2.2733,1.513 0.6508,0.6489 1.1672,1.4199 1.5195,2.2688 0.3523,0.8489 0.5337,1.7589 0.5337,2.678 z"
     fill="#8cb301"
     id="path20" />
  <path
     d="m 96.715413,118.81599 -3.183699,-3.3358 1.4601,-1.3991 1.926399,2.0075 4.694297,-3.6805 1.2471,1.5919 z"
     fill="#ffffff"
     id="path22" />
  <path
     d="m 114.93312,134.91588 h 68.9449"
     stroke="#ddccee"
     stroke-width="3"
     stroke-miterlimit="10"
     id="path24" />
  <path
     d="m 104.77281,134.02278 c 0,1.3808 -0.4092,2.7306 -1.1759,3.879 -0.7667,1.1483 -1.8566,2.0437 -3.1319,2.57311 -1.275297,0.5293 -2.678797,0.6688 -4.033397,0.4009 -1.354499,-0.2679 -2.599299,-0.93121 -3.577099,-1.90621 -0.9778,-0.9749 -1.6447,-2.2178 -1.9165,-3.5715 -0.2719,-1.3538 -0.1364,-2.7578 0.3892,-4.0346 0.5257,-1.2768 1.4179,-2.3692 2.564,-3.1393 1.1461,-0.77 2.494799,-1.18309 3.875599,-1.18709 0.919,-0.003 1.8296,0.176 2.679497,0.52589 0.8499,0.3499 1.6224,0.864 2.2733,1.513 0.6508,0.6489 1.1672,1.4199 1.5195,2.2688 0.3523,0.8489 0.5337,1.7589 0.5337,2.678 z"
     fill="#8cb301"
     id="path26" />
  <path
     d="m 96.715413,138.07958 -3.183699,-3.3357 1.4601,-1.3992 1.926399,2.0076 4.694297,-3.6805 1.2471,1.5918 z"
     fill="#ffffff"
     id="path28" />
</svg>
